<svg xmlns="http://www.w3.org/2000/svg" width="26.612" height="26.612" viewBox="0 0 26.612 26.612"><defs><style>.a{fill:#fff;opacity:0.8;}</style></defs><g transform="translate(46.612 46.612) rotate(180)"><path class="a" d="M13.306,0h0A13.306,13.306,0,0,0,0,13.306H0A13.306,13.306,0,0,0,13.306,26.612h0A13.306,13.306,0,0,0,26.612,13.306h0A13.306,13.306,0,0,0,13.306,0Zm6.653,13.332a1.064,1.064,0,0,1-.314.772l-4.38,4.367a1.072,1.072,0,0,1-1.517-1.514l2.565-2.568h-8.6a1.064,1.064,0,1,1,0-2.129h8.62L13.748,9.671a1.073,1.073,0,0,1,1.517-1.517l4.38,4.367a1.064,1.064,0,0,1,.314.758v.053Z" transform="translate(20 20)"/></g></svg>